<svg width="512" height="512" viewBox="0 0 512 512" fill="none" xmlns="http://www.w3.org/2000/svg">
  <!-- Background Circle with Gradient -->
  <circle cx="256" cy="256" r="256" fill="url(#gradient)"/>

  <!-- Gradient Definition -->
  <defs>
    <linearGradient id="gradient" x1="0%" y1="0%" x2="100%" y2="100%">
      <stop offset="0%" style="stop-color:#6366f1;stop-opacity:1" />
      <stop offset="50%" style="stop-color:#ec4899;stop-opacity:1" />
      <stop offset="100%" style="stop-color:#a855f7;stop-opacity:1" />
    </linearGradient>
  </defs>

  <!-- Key Icon -->
  <g transform="translate(150, 120)">
    <!-- Key Head (Circle) -->
    <circle cx="50" cy="50" r="45" fill="white" opacity="0.95"/>
    <circle cx="50" cy="50" r="25" fill="none" stroke="url(#gradient)" stroke-width="8"/>

    <!-- Key Shaft -->
    <rect x="80" y="40" width="120" height="20" rx="10" fill="white" opacity="0.95"/>

    <!-- Key Teeth -->
    <rect x="170" y="25" width="15" height="20" rx="3" fill="white" opacity="0.95"/>
    <rect x="190" y="15" width="15" height="30" rx="3" fill="white" opacity="0.95"/>
  </g>

  <!-- Sparkle 1 (Top Right) -->
  <g transform="translate(360, 140)">
    <path d="M 0,-15 L 3,-3 L 15,0 L 3,3 L 0,15 L -3,3 L -15,0 L -3,-3 Z" fill="white" opacity="0.9"/>
  </g>

  <!-- Sparkle 2 (Bottom Left) -->
  <g transform="translate(140, 360)">
    <path d="M 0,-12 L 2.5,-2.5 L 12,0 L 2.5,2.5 L 0,12 L -2.5,2.5 L -12,0 L -2.5,-2.5 Z" fill="white" opacity="0.85"/>
  </g>

  <!-- Sparkle 3 (Bottom Right) -->
  <g transform="translate(370, 370)">
    <path d="M 0,-10 L 2,-2 L 10,0 L 2,2 L 0,10 L -2,2 L -10,0 L -2,-2 Z" fill="white" opacity="0.8"/>
  </g>
</svg>
